# xmcd
#
# Track frame offsets:
#	151
#	12750
#	24875
#	36487
#	52312
#	65519
#	81992
#	96196
#	109213
#	124795
#	136354
#
# Disc length: 2052 seconds
#
# Revision: 1
# Processed by: cddbd v1.5.2PL0 Copyright (c) Steve Scherf et al.
# Submitted via: audiograbber 1.83.01
#
DISCID=9708020b
DTITLE=Chantal Cliche - Chantal Cliche - Éponyme
DYEAR=2003
DGENRE=Country
TTITLE0=Chantal Cliche - Ne T'arrêtes Pas Dans Ma Vie
TTITLE1=Chantal Cliche - C'est Pour Elle
TTITLE2=Chantal Cliche - J'laisse Tout Tomber
TTITLE3=Chantal Cliche - Donnes-toi Une Autre Chance
TTITLE4=Chantal Cliche - Torrent D'amour
TTITLE5=Chantal Cliche - Parce Que C'est Moi
TTITLE6=Chantal Cliche - Musique and Nature
TTITLE7=Chantal Cliche - Quelque Chose Au Loin
TTITLE8=Chantal Cliche - Ce Silence Entre Toi and Moi
TTITLE9=Chantal Cliche - Non Plus Jamais
TTITLE10=Chantal Cliche - Fais-moi Danser Une Derniere Fois
EXTD=
EXTT0=
EXTT1=
EXTT2=
EXTT3=
EXTT4=
EXTT5=
EXTT6=
EXTT7=
EXTT8=
EXTT9=
EXTT10=
PLAYORDER=
